<svg width="16" height="22" viewBox="0 0 16 22" fill="none" xmlns="http://www.w3.org/2000/svg">
<path d="M15.5 7.55328V16.6111H15.0455V8.66556V7.52958L14.2077 8.29684L12.7532 9.62906L12.5909 9.7777V9.99778V17.1112L8 21.3216L3.40909 17.1112V9.99778V9.7777L3.2468 9.62906L0.740114 7.33318L8 0.678284L15.5 7.55328ZM13.2979 7.70191L13.6999 7.33333L13.2979 6.96476L8.33786 2.41809L8 2.10838L7.66214 2.41809L2.70214 6.96476L2.30005 7.33333L2.70214 7.70191L7.66214 12.2486L8 12.5583L8.33786 12.2486L13.2979 7.70191ZM11.9737 16.2579L12.1364 16.1092V15.8889V11.33V10.1926L11.2983 10.9616L8 13.9881L4.70168 10.9616L3.86364 10.1926V11.33V15.8889V16.1092L4.02626 16.2579L7.66263 19.5824L8 19.8908L8.33737 19.5824L11.9737 16.2579Z" fill="white" stroke="white"/>
</svg>
