<svg width="492" height="475" viewBox="0 0 492 475" fill="none" xmlns="http://www.w3.org/2000/svg">
<ellipse cx="133.5" cy="339.5" rx="133.5" ry="135.5" fill="white"/>
<path d="M88 295C88 291.022 89.5979 287.206 92.4422 284.393C95.2865 281.58 99.1442 280 103.167 280H163.833C167.856 280 171.713 281.58 174.558 284.393C177.402 287.206 179 291.022 179 295V385C179 388.978 177.402 392.794 174.558 395.607C171.713 398.42 167.856 400 163.833 400H103.167C99.1442 400 95.2865 398.42 92.4422 395.607C89.5979 392.794 88 388.978 88 385V295ZM103.167 298.75V313.75C103.167 314.745 103.566 315.698 104.277 316.402C104.988 317.105 105.953 317.5 106.958 317.5H160.042C161.047 317.5 162.012 317.105 162.723 316.402C163.434 315.698 163.833 314.745 163.833 313.75V298.75C163.833 297.755 163.434 296.802 162.723 296.098C162.012 295.395 161.047 295 160.042 295H106.958C105.953 295 104.988 295.395 104.277 296.098C103.566 296.802 103.167 297.755 103.167 298.75ZM103.167 328.75V336.25C103.167 337.245 103.566 338.198 104.277 338.902C104.988 339.605 105.953 340 106.958 340H114.542C115.547 340 116.512 339.605 117.223 338.902C117.934 338.198 118.333 337.245 118.333 336.25V328.75C118.333 327.755 117.934 326.802 117.223 326.098C116.512 325.395 115.547 325 114.542 325H106.958C105.953 325 104.988 325.395 104.277 326.098C103.566 326.802 103.167 327.755 103.167 328.75ZM106.958 347.5C105.953 347.5 104.988 347.895 104.277 348.598C103.566 349.302 103.167 350.255 103.167 351.25V358.75C103.167 359.745 103.566 360.698 104.277 361.402C104.988 362.105 105.953 362.5 106.958 362.5H114.542C115.547 362.5 116.512 362.105 117.223 361.402C117.934 360.698 118.333 359.745 118.333 358.75V351.25C118.333 350.255 117.934 349.302 117.223 348.598C116.512 347.895 115.547 347.5 114.542 347.5H106.958ZM103.167 373.75V381.25C103.167 382.245 103.566 383.198 104.277 383.902C104.988 384.605 105.953 385 106.958 385H114.542C115.547 385 116.512 384.605 117.223 383.902C117.934 383.198 118.333 382.245 118.333 381.25V373.75C118.333 372.755 117.934 371.802 117.223 371.098C116.512 370.395 115.547 370 114.542 370H106.958C105.953 370 104.988 370.395 104.277 371.098C103.566 371.802 103.167 372.755 103.167 373.75ZM129.708 325C128.703 325 127.738 325.395 127.027 326.098C126.316 326.802 125.917 327.755 125.917 328.75V336.25C125.917 337.245 126.316 338.198 127.027 338.902C127.738 339.605 128.703 340 129.708 340H137.292C138.297 340 139.262 339.605 139.973 338.902C140.684 338.198 141.083 337.245 141.083 336.25V328.75C141.083 327.755 140.684 326.802 139.973 326.098C139.262 325.395 138.297 325 137.292 325H129.708ZM125.917 351.25V358.75C125.917 359.745 126.316 360.698 127.027 361.402C127.738 362.105 128.703 362.5 129.708 362.5H137.292C138.297 362.5 139.262 362.105 139.973 361.402C140.684 360.698 141.083 359.745 141.083 358.75V351.25C141.083 350.255 140.684 349.302 139.973 348.598C139.262 347.895 138.297 347.5 137.292 347.5H129.708C128.703 347.5 127.738 347.895 127.027 348.598C126.316 349.302 125.917 350.255 125.917 351.25ZM129.708 370C128.703 370 127.738 370.395 127.027 371.098C126.316 371.802 125.917 372.755 125.917 373.75V381.25C125.917 382.245 126.316 383.198 127.027 383.902C127.738 384.605 128.703 385 129.708 385H137.292C138.297 385 139.262 384.605 139.973 383.902C140.684 383.198 141.083 382.245 141.083 381.25V373.75C141.083 372.755 140.684 371.802 139.973 371.098C139.262 370.395 138.297 370 137.292 370H129.708ZM148.667 328.75V336.25C148.667 337.245 149.066 338.198 149.777 338.902C150.488 339.605 151.453 340 152.458 340H160.042C161.047 340 162.012 339.605 162.723 338.902C163.434 338.198 163.833 337.245 163.833 336.25V328.75C163.833 327.755 163.434 326.802 162.723 326.098C162.012 325.395 161.047 325 160.042 325H152.458C151.453 325 150.488 325.395 149.777 326.098C149.066 326.802 148.667 327.755 148.667 328.75ZM152.458 347.5C151.453 347.5 150.488 347.895 149.777 348.598C149.066 349.302 148.667 350.255 148.667 351.25V381.25C148.667 382.245 149.066 383.198 149.777 383.902C150.488 384.605 151.453 385 152.458 385H160.042C161.047 385 162.012 384.605 162.723 383.902C163.434 383.198 163.833 382.245 163.833 381.25V351.25C163.833 350.255 163.434 349.302 162.723 348.598C162.012 347.895 161.047 347.5 160.042 347.5H152.458Z" fill="#321570"/>
<ellipse cx="391" cy="188" rx="101" ry="102" fill="white"/>
<path d="M367 157.625H384.037C391.662 157.625 397.287 161.219 398.569 168.4H367V174.969H398.569C397.344 182.256 392 185.738 384.425 185.738H367V193.969L394.731 226H407.919L380.094 194.025H385.437C399.912 193.912 407.094 184.8 408.487 174.969H417V168.4H408.594C408.094 163.537 406.363 160.056 403.638 157.575H417V151H367V157.625Z" fill="#321570"/>
<ellipse cx="144.5" cy="72" rx="71.5" ry="72" fill="white"/>
<path d="M170.448 90.9886H122.969V47.5568C122.969 47.2506 122.72 47 122.417 47H118.552C118.248 47 118 47.2506 118 47.5568V95.4432C118 95.7494 118.248 96 118.552 96H170.448C170.752 96 171 95.7494 171 95.4432V91.5455C171 91.2392 170.752 90.9886 170.448 90.9886ZM130.27 80.249C130.484 80.4648 130.829 80.4648 131.05 80.249L140.594 70.6717L149.4 79.6087C149.614 79.8244 149.966 79.8244 150.18 79.6087L169.185 60.4472C169.399 60.2314 169.399 59.8764 169.185 59.6607L166.452 56.9044C166.348 56.8008 166.208 56.7426 166.062 56.7426C165.916 56.7426 165.776 56.8008 165.672 56.9044L149.8 72.906L141.008 63.983C140.904 63.8793 140.764 63.8212 140.618 63.8212C140.472 63.8212 140.332 63.8793 140.228 63.983L127.544 76.6993C127.441 76.8039 127.384 76.9453 127.384 77.0925C127.384 77.2398 127.441 77.3811 127.544 77.4858L130.27 80.249Z" fill="#321570"/>
</svg>
