<svg width="613" height="613" viewBox="0 0 613 613" fill="none" xmlns="http://www.w3.org/2000/svg">
<rect width="613" height="613" fill="white"/>
<path fill-rule="evenodd" clip-rule="evenodd" d="M348.256 508.205C407.455 508.205 459.406 464.17 430.23 404.359C401.055 344.548 509.46 346.479 541.303 305.142C580.138 254.729 568.892 40.7346 319.588 171.196C279.653 192.094 177.09 149.697 143.069 170.734C103.023 195.496 46.6816 246.202 103.023 298.144C130.776 323.729 31.2756 390.136 74.855 449.62C117.378 507.661 147.185 452.331 211.925 464.17C276.665 476.008 304.291 508.205 348.256 508.205Z" fill="#EADFF8"/>
<path d="M279.546 404.151C279.546 404.151 293.176 397.739 298.265 393.278C303.354 388.818 309.68 377.735 309.68 377.735C309.68 377.735 379.172 427.922 424.484 420.763C434.924 419.113 455.266 412.174 456.564 399.947C460.106 366.56 411.095 358.028 421.801 341.097C428.336 330.762 448.636 346.144 448.636 346.144L532.836 387.56C532.836 387.56 503.747 459.264 433.156 462.137C346.319 465.672 279.546 404.151 279.546 404.151Z" fill="white"/>
<path fill-rule="evenodd" clip-rule="evenodd" d="M212.789 123.34C211.998 123.03 207.754 117.833 202.366 116.887C199.918 116.457 202.14 119.575 199.445 119.603C191.42 119.687 178.378 118.179 175.962 119.603C174.166 120.658 178.121 124.344 175.962 124.513C155.593 126.11 124.518 146.448 117.776 156.315C115.63 159.455 132.983 154.127 130.219 155.68C127.115 157.422 123.674 168.831 121.616 177.642C120.191 183.71 119.294 191.519 118.978 200.014C118.714 207.348 118.819 208.561 119.875 212.571C121.088 217.056 122.038 218.375 123.674 217.742C124.254 217.531 124.518 216.74 124.518 215.262C124.518 214.102 125.151 210.619 125.942 207.506L127.314 201.913L127.895 204.235C128.633 206.926 132.96 215.262 136.864 221.33C137.075 221.652 137.981 221.243 138.798 219.268C139.542 217.468 139.24 214.593 140.505 211.512C143.386 204.494 149.043 195.369 155.593 188.065C165.273 177.27 168.485 164.777 177.559 154.748C194.493 136.033 215.747 124.501 212.789 123.34Z" fill="white"/>
<path fill-rule="evenodd" clip-rule="evenodd" d="M130.459 158.226C127.743 160.411 123.71 178.129 123.641 178.425C122.217 184.493 120.843 205.564 122.247 209.553C123.651 213.543 127.581 199.162 127.581 199.162C127.581 199.162 133.522 214.589 138.772 218.818C138.996 218.999 132.532 199.732 130.459 188.485C127.723 173.637 132.005 156.983 130.459 158.226Z" fill="#E7EAEE"/>
<path fill-rule="evenodd" clip-rule="evenodd" d="M231.711 468.538C236.776 467.429 245.323 463.571 248.595 462.251C251.867 460.932 261.839 446.852 265.427 430.97C268.012 419.257 269.331 402.584 267.854 399.787C267.635 399.39 266.837 391.809 268.962 394.284C273.684 399.787 279.29 408.426 296.978 392.946C301.796 388.729 308.181 383.288 306.5 378.477C301.796 365.017 281.404 337.915 278.296 335.862C274.579 333.407 255.792 335.493 227.833 327.241C196.126 317.882 182.923 290.324 170.515 293.912C160.481 296.813 136.439 314.641 130.405 325.931C101.92 379.23 136.439 416.577 144.3 427.304L151.933 430.601L152.197 437.407L152.566 441.681C153.252 449.859 153.516 450.598 157.209 453.342C166.443 460.359 184.646 466.902 201.108 469.223C208.759 470.279 225.379 469.909 231.711 468.538Z" fill="white"/>
<path fill-rule="evenodd" clip-rule="evenodd" d="M154.935 434.916L155.304 439.19C155.99 447.368 156.254 448.106 159.947 450.85C165.395 454.99 173.963 458.965 183.455 462.005C190.052 464.118 197.096 465.78 203.846 466.732C211.497 467.787 228.117 467.418 234.449 466.046C237.578 465.368 211.836 445.144 196.67 450.85C185.024 455.233 157.574 421.804 168.735 413.071C181.255 403.274 158.313 364.633 157.574 356.245C156.836 347.856 153.927 345.851 153.842 346.146C153.757 346.44 153.757 347.443 153.985 349.862C154.969 360.286 154.935 434.916 154.935 434.916Z" fill="#E7EAEE"/>
<path fill-rule="evenodd" clip-rule="evenodd" d="M152.187 353.85C153.294 353.634 154.367 354.357 154.583 355.465C158.565 375.924 175.409 389.774 205.529 397.017C235.828 404.302 256.466 403.909 267.34 396.133C268.258 395.476 267.574 401.098 266.902 401.529C259.809 406.077 235.695 412.864 206.919 406.73C170.125 398.887 152.849 367.949 150.571 356.246C150.356 355.138 151.079 354.065 152.187 353.85Z" fill="#F9A785"/>
<path fill-rule="evenodd" clip-rule="evenodd" d="M136.843 316.938C137.823 316.377 174.367 358.26 224.518 367.741C274.67 377.221 286.812 371.192 288.764 358.26C288.932 357.144 289.974 356.376 291.089 356.545C292.205 356.713 292.973 357.754 292.805 358.87C290.331 375.259 267.125 379.157 223.831 371.769C181.08 364.474 151.771 347.141 136.084 319.726C135.524 318.747 135.864 317.498 136.843 316.938Z" fill="#F9A785"/>
<path fill-rule="evenodd" clip-rule="evenodd" d="M347.336 314.615C345.965 314.14 344.487 313.085 343.537 311.872L341.955 309.919L347.547 304.379C356.148 295.937 362.743 287.284 368.442 276.995C370.341 273.566 375.143 262.116 375.143 261.008C375.143 260.639 375.723 259.161 376.409 257.631C377.464 255.415 378.256 254.571 380.524 253.305C383.215 251.722 386.276 251.194 387.595 252.091C390.127 253.779 390.127 259.108 387.595 268.289C384.798 278.367 381.052 285.596 373.296 295.99C372.082 297.573 369.813 300.686 368.178 302.849C363.798 308.653 360.949 311.449 357.098 313.613C353.299 315.723 351.083 315.987 347.336 314.615ZM385.22 309.867L389.019 311.555C389.807 311.919 398.497 316.094 408.935 321.11C425.765 329.196 447.139 339.467 447.27 339.467C447.481 339.467 448.471 337.177 448.694 334.507C449.222 328.756 451.174 320.947 453.443 315.512C454.498 313.085 455.342 310.052 455.342 309.788C455.342 309.667 454.485 309.321 453.08 308.755C451.409 308.081 448.963 307.094 446.267 305.804C432.971 299.419 406.959 286.387 403.74 284.435C400.574 282.588 399.941 282.43 399.941 283.643C399.941 285.226 396.723 292.56 394.243 296.517C392.924 298.681 390.338 302.585 388.492 305.171L385.22 309.867ZM446.373 329.969C447.886 330.846 445.265 332.133 444.632 332.344C440.903 332.66 436.514 331.959 432.918 329.864C431.038 328.53 416.232 320.305 406.411 314.849C401.921 312.354 398.473 310.439 397.778 310.025C395.562 308.706 393.451 307.281 393.082 306.859C391.974 305.434 393.029 304.801 396.142 305.065C398.014 305.224 443.105 328.075 446.373 329.969ZM246.302 462.849L246.302 462.848C247.286 462.433 248.132 462.076 248.775 461.817C252.047 460.497 262.019 446.417 265.606 430.536C268.192 418.822 269.511 402.149 268.034 399.353C267.143 397.733 272.435 403.166 276.376 407.212L276.376 407.213C277.571 408.439 278.641 409.538 279.378 410.275C302.382 433.121 336.626 451.483 372.188 460.083C389.916 464.41 402.527 465.94 419.464 465.94C447.903 465.94 470.327 460.347 490.694 448.053C491.661 447.469 492.568 446.932 493.432 446.421C500.531 442.217 504.761 439.713 516.336 426.684C529.321 412.069 540.871 378.142 544.723 366.429C546.411 361.152 550.527 340.166 550.527 334.929C550.527 328.729 548.364 325.801 545.409 322.793C540.185 317.675 533.115 315.829 527.258 318.045L524.515 319.1L523.671 316.304C522.457 312.083 519.924 308.706 516.02 306.173C510.216 302.321 509.372 302.058 504.148 302.058C500.085 302.058 498.977 302.269 496.392 303.482L493.385 304.854L492.751 302.955C491.538 299.05 487.467 293.607 484.309 292.033C481.509 290.636 476.66 290.508 473.282 291.136C465.895 292.507 460.619 295.937 458.455 300.739C457.822 302.216 457.031 303.377 456.714 303.377C456.45 303.377 446.056 300.474 433.657 294.986C431.575 294.062 429.618 293.195 427.78 292.38L427.756 292.369C405.49 282.5 400.663 280.361 401.102 277.681C401.471 275.412 401.366 274.146 400.733 272.194C399.625 268.922 398.358 268.025 394.77 268.025C393.054 268.025 392.371 268.025 392.169 267.714C392.036 267.508 392.112 267.167 392.238 266.601C393.926 258.528 393.873 253.885 392.079 250.93C390.866 248.978 389.441 248.187 386.17 247.712C384.271 247.448 383.374 247.606 381.263 248.767C379.838 249.506 378.625 250.033 378.519 249.928C378.414 249.822 378.783 246.92 379.364 243.491C383.69 218.112 380.348 196.245 369.32 173.029C369.215 172.807 369.092 172.544 368.952 172.244C365.6 165.046 352.12 136.106 313.568 121.502C311.823 120.841 310.172 120.202 308.585 119.588C295.453 114.505 286.723 111.126 265.659 111.161C242.05 111.2 234.054 114.538 218.489 121.661C216.326 122.663 214.426 123.244 214.268 123.033C214.11 122.769 213.107 122.136 212.105 121.608C211.102 121.08 208.939 119.761 207.356 118.706C202.818 115.646 200.022 114.379 198.597 114.696C196.962 115.118 196.962 116.49 198.597 117.123C199.283 117.387 200.075 118.284 200.391 119.181C201.077 121.08 201.869 121.291 202.344 119.708C202.555 119.128 202.871 118.706 203.029 118.811C203.089 118.841 203.29 118.935 203.596 119.079L203.597 119.079L203.597 119.079L203.598 119.08L203.599 119.08C204.37 119.441 205.809 120.115 207.356 120.869C209.519 121.925 211.894 123.033 212.527 123.296C213.688 123.718 213.318 124.035 208.306 126.99C188.731 138.492 172.796 156.379 163.879 176.745C162.507 179.806 161.294 181.705 160.028 182.76C156.809 185.451 150.477 193.102 149 196.109C148.209 197.745 146.52 200.278 145.201 201.755C143.935 203.232 142.563 205.132 142.088 205.923C141.666 206.768 141.244 207.348 141.086 207.242C140.98 207.084 141.138 204.499 141.508 201.491C142.299 194.474 142.299 192.627 141.666 192.469C140.716 192.205 139.344 195.898 138.764 200.489C138.342 203.285 138.236 207.506 138.5 211.833L138.817 218.692L135.071 212.624C133.78 210.592 132.51 208.56 131.608 207.118L131.608 207.118L131.606 207.115L131.606 207.114C131.034 206.2 130.612 205.524 130.428 205.237C129.056 203.232 128.264 200.225 128.845 199.222C129.161 198.642 129.108 198.378 128.581 198.378C127.473 198.378 125.309 201.913 123.885 205.976C123.199 207.876 122.513 209.458 122.302 209.458C121.511 209.458 121.88 190.569 122.724 184.502C124.465 172.524 129.056 157.751 131.113 157.751C131.536 157.751 131.905 157.54 131.905 157.223C131.905 156.273 130.533 156.643 129.425 157.856C126.945 160.547 123.674 168.831 121.616 177.642C120.191 183.71 119.294 191.519 118.978 200.014C118.714 207.348 118.82 208.561 119.875 212.571C121.088 217.056 122.038 218.375 123.674 217.742C124.254 217.531 124.518 216.74 124.518 215.262C124.518 214.102 125.151 210.619 125.943 207.506L127.314 201.913L127.895 204.235C128.634 206.926 132.96 215.262 136.865 221.33C139.556 225.446 139.608 225.709 140.505 232.147C140.98 235.787 142.457 244.642 145.887 258.264C148.917 270.3 165.953 282.239 170.206 285.221L170.206 285.221L170.208 285.222C170.767 285.614 171.105 285.851 171.161 285.912C171.688 286.492 172.427 286.809 172.849 286.651C173.324 286.492 173.588 286.704 173.588 287.284C173.588 287.812 173.957 288.497 174.379 288.814C174.907 289.183 175.276 290.608 175.382 293.088C175.645 298.048 179.339 307.545 182.188 310.658C184.035 312.663 187.886 313.507 192.16 312.768C194.957 312.346 195.748 312.03 195.484 311.397C195.326 310.975 196.329 311.502 197.7 312.557C213.74 324.798 229.991 332.133 248.247 335.298C255.318 336.512 267.031 337.198 273.415 336.723C279.061 336.354 279.061 336.354 278.797 337.462C278.428 338.939 278.903 339.836 286.659 352.974C292.832 363.368 293.36 364.054 300.219 371.072C314.782 386.109 330.663 397.77 348.655 406.792C365.592 415.234 392.633 422.252 417.353 424.468C442.073 426.684 459.827 403.996 459.774 398.192C459.669 390.225 458.561 385.001 455.87 379.936C453.232 375.029 451.491 373.34 443.576 368.064C434.765 362.207 429.33 357.406 425.742 352.288C423.474 349.069 422.629 345.429 422.629 343.477C422.629 342.21 424.265 339.361 426.692 338.781C428.908 338.2 429.33 338.253 431.81 339.467C433.287 340.153 437.139 341.946 440.305 343.477C443.523 344.954 446.637 346.431 447.27 346.748C449.136 347.266 449.925 350.92 450.353 352.901L450.353 352.901C450.449 353.344 450.526 353.702 450.594 353.924C451.332 356.667 454.828 360.21 457.084 361.416C461.044 363.534 470.803 363.817 473.494 360.915C474.18 360.177 476.454 359.268 476.923 359.543C477.391 359.819 479.086 362.102 479.086 363.949C479.139 367.114 480.774 370.016 484.257 372.918C490.852 378.406 495.97 379.725 501.141 377.298C503.832 376.031 506.037 375.537 506.037 375.537C506.037 375.537 508.237 378.343 508.369 379.303C509.405 386.799 520.504 389.942 523.459 390.259C524.137 390.326 525.454 390.037 526.793 389.742L526.793 389.742C528.583 389.349 530.41 388.947 530.794 389.38C531.547 390.231 518.183 412.332 516.336 415.129C498.766 441.51 464.576 457.656 422.735 459.344C395.562 460.452 362.163 452.854 333.196 439.03C314.676 430.114 298.267 419.192 280.697 403.89C277.636 401.252 274.101 398.245 272.835 397.189C271.569 396.187 268.561 392.757 266.24 389.591C262.335 384.315 260.119 382.416 260.119 384.21C260.119 385.001 262.652 389.855 265.554 394.657C266.714 396.556 267.453 397.875 267.189 397.664C266.926 397.453 266.081 401.252 265.29 406.106C262.704 421.671 258.431 437.025 254.104 446.576C251.73 451.746 247.177 455.608 245.805 456.663C240.74 460.515 233.157 462.246 222.657 463.301C209.361 464.621 189.786 461.666 174.854 456.073C170.897 454.596 160.713 450.322 160.028 449.847C159.986 449.806 159.753 448.288 159.426 446.17C159.334 445.572 159.235 444.927 159.131 444.254C157.231 431.222 154.593 381.044 154.593 357.828C154.593 348.225 154.487 346.115 153.854 346.115C152.535 346.115 152.008 347.381 151.427 351.919C150.108 362.26 150.372 416.237 151.797 427.581L152.113 430.166L150.319 429.164C147.575 427.581 137.128 416.976 133.488 412.069C130.406 407.874 128.574 402.501 127.203 398.481L127.203 398.481L127.202 398.478L127.201 398.475C126.883 397.543 126.59 396.683 126.312 395.928C118.661 374.717 121.352 350.916 131.905 329.494C140.875 311.238 151.902 301.108 168.048 296.201C170.686 295.409 173.007 294.565 173.271 294.354C174.274 293.404 167.837 293.879 164.301 294.987C152.799 298.522 140.769 308.178 132.591 320.525C121.088 337.831 115.918 363.368 119.558 385.159C120.403 390.33 123.832 401.516 124.782 402.307C124.866 402.391 125.299 403.301 125.955 404.676L125.956 404.678L125.956 404.679C127.771 408.486 131.286 415.859 133.804 419.192C136.865 423.36 146.098 432.435 149.95 435.232L152.377 436.973L152.746 441.247C153.432 449.425 153.696 450.163 157.389 452.907C166.623 459.925 184.826 466.467 201.288 468.789C208.939 469.844 225.559 469.475 231.891 468.103C235.96 467.213 242.276 464.547 246.299 462.849L246.3 462.849L246.302 462.849ZM410.23 418.558C379.575 415.867 342.535 401.251 315.731 378.669C304.44 369.118 289.772 350.547 283.968 340.258C282.754 338.148 281.857 337.145 280.802 336.881C279.694 336.565 280.644 336.248 285.182 335.509C304.335 332.238 322.96 324.271 337.997 312.927L340.213 311.291L340.847 312.821C342.271 316.251 347.759 319.733 351.821 319.733C353.457 319.733 358.944 317.253 362.268 314.985L364.537 313.454L366.384 315.301C368.072 316.99 368.389 317.095 371.555 317.095C375.195 317.095 379.575 315.459 382.002 313.138L383.321 311.924L387.067 314.404C389.072 315.829 394.665 318.942 399.466 321.422C406.642 325.115 414.24 329.389 421.469 333.821L422.629 334.56L421.521 336.037C420.361 337.62 418.198 340.627 418.198 345.218C418.198 350.389 423.575 359.679 433.868 366.059C441.954 371.072 455.87 380.931 455.342 395.343C455.279 397.083 453.337 401.41 450.752 405.315C449.064 407.795 444.368 411.488 440.094 413.651C432.813 417.292 419.991 419.403 410.23 418.558ZM128.897 181.705C130.322 182.022 131.272 182.497 131.061 182.708C130.375 183.393 126.734 183.077 125.89 182.233C124.571 180.966 124.887 180.069 126.734 179.7C127.684 179.542 129.108 178.75 129.9 177.959C130.691 177.167 131.377 176.798 131.377 177.062C131.377 177.748 128.739 180.175 127.42 180.703C126.576 181.072 126.84 181.23 128.897 181.705ZM149.897 182.549C151.427 181.705 151.111 181.125 149.317 181.388C147.523 181.652 147.417 181.441 148.578 179.647C149.053 178.961 149.317 177.959 149.211 177.431C149.053 176.745 148.684 177.062 147.839 178.75C147.206 179.964 146.309 180.966 145.887 180.966C144.568 180.966 144.462 182.022 145.729 182.497C147.364 183.182 148.631 183.182 149.897 182.549ZM131.641 153.741C130.375 153.952 126.418 155.535 122.935 157.276C119.4 158.964 116.393 160.389 116.181 160.336C110.8 159.756 118.292 150.786 131.905 141.605C144.937 132.794 153.749 128.151 161.927 125.776C167.045 124.299 172.796 124.088 174.432 125.301C175.329 125.987 175.012 126.04 171.108 126.093C162.666 126.093 152.905 130.419 137.023 141.025C128.792 146.512 119.242 154.374 119.242 155.64C119.242 155.904 120.772 155.376 122.671 154.532C126.734 152.685 130.902 151.736 132.749 152.158C134.701 152.685 134.279 153.371 131.641 153.741ZM152.06 158.278C157.02 157.276 157.231 157.223 157.231 156.695C157.231 156.432 155.332 156.168 152.957 156.062L148.684 155.904L152.641 151.419C154.804 148.939 157.337 146.459 158.234 145.879C160.186 144.613 160.291 143.716 158.708 143.188L157.495 142.819L158.814 142.344C159.553 142.08 160.925 141.974 161.874 142.133C163.299 142.344 163.615 142.238 163.457 141.5C163.299 140.761 162.718 140.603 160.133 140.655C152.588 140.761 149.369 142.766 155.279 143.716C156.915 143.979 158.286 144.402 158.286 144.665C158.286 144.876 158.023 145.087 157.706 145.087C156.703 145.087 148.209 153.688 147.153 155.798C145.518 158.911 146.415 159.386 152.06 158.278ZM186.884 137.806C185.354 137.912 184.984 138.176 185.09 138.914L185.106 139.022C185.166 139.412 185.2 139.636 185.112 139.704C184.994 139.796 184.654 139.604 183.857 139.151L183.718 139.073C182.716 138.545 182.61 138.281 183.191 137.859C183.56 137.542 184.562 137.068 185.354 136.909L186.831 136.54L185.723 135.379C185.143 134.693 184.826 134.06 184.984 133.849C185.407 133.427 190.577 134.007 191.316 134.588C191.633 134.851 192.108 134.799 192.424 134.482C193.163 133.743 194.165 134.324 194.165 135.485C194.165 136.118 194.007 136.171 193.532 135.696C193.11 135.274 192.741 135.274 192.266 135.643C191.844 136.012 191.527 136.012 191.263 135.59C191.105 135.326 190.103 135.063 189.047 135.063C188.074 135.063 187.613 135.063 187.519 135.248C187.435 135.414 187.646 135.73 188.045 136.329C188.886 137.644 188.837 137.648 186.902 137.805L186.884 137.806ZM178.864 123.771C178.864 123.085 178.231 121.872 177.439 121.08L175.962 119.603L183.876 119.92C188.256 120.131 193.216 120.605 194.957 121.08C196.698 121.502 198.703 121.819 199.442 121.819C200.55 121.819 200.339 121.608 198.281 120.5C194.693 118.653 190.103 117.756 181.291 117.123C170.738 116.384 165.409 117.387 166.412 120.025C166.57 120.553 167.414 120.816 168.681 120.816C171.266 120.816 175.487 122.347 176.912 123.771C178.442 125.301 178.864 125.301 178.864 123.771ZM153.116 263.488C157.389 268.975 163.035 275.201 165.673 277.312C167.256 278.578 168.628 279.633 168.733 279.633C168.786 279.633 167.625 277.206 166.148 274.251C160.186 262.38 156.704 250.561 155.068 236.948C154.699 233.94 154.118 231.408 153.485 230.353C152.219 228.242 152.219 225.498 153.538 222.913C154.224 221.541 154.593 219.8 154.593 217.901V214.999L152.06 217.637C149.58 220.222 147.206 221.277 147.206 219.694C147.206 218.534 151.111 212.941 153.168 211.2C154.804 209.828 155.015 209.353 155.543 205.237C155.912 202.758 156.756 198.378 157.442 195.476C158.181 192.574 158.603 190.094 158.497 189.989C158.128 189.62 145.729 203.86 144.04 208.403C143.67 209.401 142.669 211.147 141.877 212.202L140.505 213.963C140.505 213.963 140.931 216.43 141.402 219.53C141.878 222.661 142.101 224.814 142.3 226.732C142.566 229.297 142.788 231.441 143.513 234.943C144.357 239.27 145.201 243.016 145.412 243.28C145.57 243.596 146.256 246.023 146.942 248.714C148.42 254.676 150.9 260.586 153.116 263.488ZM367.228 313.402L366.12 312.294C366.12 312.294 384.51 288.928 387.806 280.319C390.32 273.749 391.8 271.886 393.797 271.886C394.914 271.886 395.826 272.141 396.248 272.774C396.986 273.882 397.698 275.254 396.749 279.95C395.166 287.548 392.739 292.56 385.457 303.377C383.769 305.857 381.606 308.6 380.656 309.55C378.44 311.608 373.454 313.718 370.552 314.193C368.705 314.457 368.178 314.351 367.228 313.402Z" fill="#00160A"/>
<path d="M513.329 365.017C519.893 347.132 518.9 343.322 517.761 342.949C517.761 342.949 515.254 344.374 514.146 347.381C512.088 353.027 505.045 367.8 502.407 370.439C499.294 373.552 499.294 373.552 496.128 373.552C492.962 373.552 483.832 368.784 482.589 364.084C480.6 356.565 489.163 330.444 489.374 328.967L487.95 327.964C487 328.861 474.646 366.323 458.403 356.562C456.543 355.444 452.599 350.177 452.282 347.381C450.524 339.256 458.591 310.843 459.963 305.007C461.191 299.783 467.583 294.935 475.445 294.935C487.528 294.935 485.905 305.496 491.317 309.218C493.715 310.867 497.657 307.877 498.872 307.65C505.678 306.384 508.286 307.859 513.276 311.819C517.128 314.876 519.978 320.926 523.114 323.057C524.857 324.241 526.706 322.623 527.311 322.319C529.794 321.072 535.12 322.002 536.597 323.057C538.763 324.002 544.071 329.103 544.909 332.071C548.709 345.519 536.71 375.333 532.18 380.926C524.681 390.184 506.765 382.902 513.329 365.017Z" fill="white"/>
<path fill-rule="evenodd" clip-rule="evenodd" d="M209.994 316.011C224.451 325.139 239.358 331.101 256.348 332.737C269.75 334.003 287.82 332.262 300.799 328.041C311.721 324.506 326.495 314.713 336.362 306.429C355.515 290.389 367.597 265.335 372.874 238.742C373.612 234.996 374.739 225.579 374.686 216.24C374.686 205.371 369.903 175.668 355.409 158.542C325.516 123.219 276.378 107.307 235.082 120.903C220.185 125.807 204.324 134.693 192.346 146.301C177.256 161.022 166.123 181.072 161.691 201.544C157.048 223.177 163.088 249.031 173.588 270.242C181.977 287.126 195.801 306.988 209.994 316.011ZM350.872 252.249C340.952 282.06 315.098 304.326 282.596 311.08C277.636 312.083 274.207 312.452 267.242 312.557C262.335 312.716 257.428 312.663 256.426 312.557C233.685 309.814 216.378 301.424 200.444 285.49C193.479 278.473 190.525 274.674 186.198 267.181C179.392 255.31 175.751 243.174 174.643 228.559C170.844 178.487 206.67 136.751 257.112 132.424C276.898 130.736 298.847 136.804 315.52 148.623C321.694 153.002 332.879 164.082 336.362 169.253C337.786 171.311 351.61 191.519 354.037 203.127C357.15 218.217 355.937 237.106 350.872 252.249Z" fill="white"/>
<path fill-rule="evenodd" clip-rule="evenodd" d="M374.705 216.24C374.705 251.655 357.953 290.373 336.333 306.909C326.018 314.798 312.538 324.35 300.799 328.041C283.596 333.449 256.348 332.737 256.348 332.737C256.348 332.737 284.147 329.021 294.449 324.875C323.99 312.986 340.116 294.737 350.074 277.226C369.73 242.662 374.705 215.38 374.705 216.24Z" fill="#E7EAEE"/>
<path fill-rule="evenodd" clip-rule="evenodd" d="M256.953 306.226C242.866 304.432 228.883 299.419 217.592 291.98C210.891 287.601 200.761 277.312 195.854 269.978C188.836 259.425 184.193 248.134 181.924 235.998C180.289 227.187 180.341 213.627 181.977 205.765C183.665 197.745 185.829 191.625 189.68 183.868C194.165 174.899 198.914 168.303 206.037 161.18C218.173 149.045 232.26 141.341 249.039 137.648C254.474 136.487 274.154 135.537 274.84 136.434C274.998 136.698 276.054 137.384 277.162 137.964C278.27 138.598 281.224 140.814 283.651 142.977C287.292 146.143 288.928 148.148 292.094 153.107C294.257 156.484 295.998 159.545 295.998 159.808C295.998 160.389 297.686 161.444 298.636 161.444C299.955 161.444 300.852 157.487 301.116 150.522C301.274 146.67 301.591 143.505 301.802 143.505C302.541 143.505 310.666 147.989 314.465 150.522C321.905 155.482 329.344 162.447 334.832 169.728C337.312 172.999 337.681 173.843 337.681 175.848C337.681 177.695 338.208 179.12 339.844 181.969C343.96 189.145 347.178 198.167 349.13 208.139C350.397 214.84 350.397 227.503 349.078 234.521C345.49 253.832 334.832 273.038 320.955 285.226C309.189 295.515 296.684 301.847 281.91 304.96C276.845 306.068 261.649 306.806 256.953 306.226ZM219.228 270.136C219.703 269.608 220.019 268.817 219.861 268.448C219.813 268.337 219.153 268.026 218.186 267.571C215.931 266.512 212.012 264.669 210.314 262.749C203.56 255.046 201.08 249.295 199.55 237.423C198.073 225.868 199.314 218.056 201.977 205.501C203.276 199.377 206.73 194.318 208.878 191.17C210.339 189.03 211.196 187.774 210.364 187.667C208.306 187.351 207.989 187.509 205.826 189.567C201.183 193.999 199.072 197.534 196.856 204.34C193.427 214.999 192.764 243.802 199.55 256.787C206.336 269.772 218.014 271.508 219.228 270.136ZM294.257 225.815C293.361 234.012 289.561 245.865 285.129 251.036C283.071 253.463 275.518 257.631 269.142 256.787C262.983 255.971 258.167 253.093 254.051 246.92C250.516 241.591 248.69 235.123 247.456 226.976C245.324 212.908 254.632 196.531 258.642 192.469C262.705 188.3 265.607 186.823 269.3 186.77C272.888 186.77 275.209 187.562 278.85 190.147C285.498 194.79 295.998 209.888 294.257 225.815ZM223.132 182.18C224.188 180.966 224.346 180.386 224.029 178.117C223.818 176.007 223.396 175.162 222.288 174.265C220.336 172.683 217.909 172.683 216.115 174.371C214.848 175.585 214.69 176.007 214.848 178.909C215.007 182.022 215.112 182.233 216.853 183.182C219.175 184.449 221.444 184.079 223.132 182.18ZM256.056 149.625C246.559 156.432 242.444 159.228 238.17 161.866C234.793 163.977 233.738 164.029 233.738 162.13C233.738 161.127 234.476 160.019 236.376 158.278L239.014 155.851L233.896 155.165C228.145 154.427 222.552 152.844 221.338 151.63C219.333 149.572 221.074 149.097 226.773 150.153C229.306 150.575 234.213 151.102 237.695 151.208L244.026 151.472L248.617 148.148C258.695 140.866 269.142 136.751 274.154 138.017C277.267 138.756 276.898 139.6 273.363 140.022C269.3 140.497 266.82 141.869 256.056 149.625Z" fill="white"/>
<path d="M269.616 249.558C269.616 249.295 269.933 249.031 270.355 249.031C270.777 249.031 271.305 249.295 271.463 249.558C271.621 249.875 271.305 250.086 270.724 250.086C270.091 250.086 269.616 249.875 269.616 249.558Z" fill="white"/>
<path d="M272.782 249.083C272.782 248.503 274.101 247.975 275.579 247.975C276.739 248.028 276.739 248.028 275.737 248.767C274.576 249.664 272.782 249.822 272.782 249.083Z" fill="white"/>
<path d="M264.604 247.712C264.446 247.29 264.235 246.551 264.076 246.129C263.918 245.601 264.182 245.337 264.868 245.337C265.448 245.337 265.923 245.654 265.923 246.076C265.923 246.498 266.081 247.184 266.24 247.659C266.451 248.239 266.292 248.503 265.712 248.503C265.237 248.503 264.709 248.134 264.604 247.712Z" fill="white"/>
<path d="M267.4 246.393C267.137 244.81 267.717 244.282 269.617 244.282C270.197 244.282 270.672 244.81 270.883 245.707C271.305 247.237 270.619 247.975 268.772 247.975C267.928 247.975 267.559 247.606 267.4 246.393Z" fill="white"/>
<path d="M262.018 246.656C261.016 245.865 261.016 245.865 262.124 245.865C262.81 245.865 263.285 246.182 263.285 246.656C263.285 247.606 263.285 247.606 262.018 246.656Z" fill="white"/>
<path d="M272.624 246.604C271.938 245.918 272.255 243.86 273.099 243.543C274.629 242.963 275.315 243.227 275.632 244.599C275.843 245.39 275.948 246.076 275.843 246.129C275.42 246.604 272.941 246.92 272.624 246.604Z" fill="white"/>
<path d="M277.32 245.496C277.161 245.337 277.003 244.651 277.003 244.018C277.003 243.121 277.425 242.752 278.692 242.488C279.8 242.277 280.486 242.383 280.802 242.805C281.33 243.649 281.33 244.704 280.855 244.968C279.905 245.496 277.689 245.812 277.32 245.496Z" fill="white"/>
<path d="M259.592 243.86C259.592 243.227 260.066 242.699 260.752 242.541C262.124 242.172 262.071 242.119 262.335 243.491C262.441 244.282 262.177 244.599 261.069 244.704C259.908 244.862 259.592 244.651 259.592 243.86Z" fill="white"/>
<path d="M263.602 243.913C262.863 243.121 263.338 241.644 264.34 241.644C265.026 241.644 265.395 242.013 265.395 242.646C265.395 243.649 264.182 244.493 263.602 243.913Z" fill="white"/>
<path d="M266.767 242.33C266.345 241.327 267.242 240.589 268.983 240.589C269.775 240.589 270.144 240.905 270.144 241.591C270.144 242.172 269.669 242.699 268.983 242.91C267.242 243.332 267.136 243.332 266.767 242.33Z" fill="white"/>
<path d="M282.016 242.171C282.174 241.908 282.438 241.644 282.596 241.644C282.754 241.644 282.702 241.908 282.543 242.171C282.385 242.488 282.121 242.699 281.963 242.699C281.805 242.699 281.857 242.488 282.016 242.171Z" fill="white"/>
<path d="M271.516 241.275C271.094 240.219 271.621 239.692 273.31 239.428C274.26 239.322 274.682 239.533 274.787 240.272C275.157 242.013 272.149 242.963 271.516 241.275Z" fill="white"/>
<path d="M258.853 240.378C258.378 238.636 258.483 238.478 259.855 238.478C260.594 238.478 261.174 238.689 261.174 238.953C261.174 239.217 261.333 239.797 261.491 240.219C261.649 240.747 261.333 241.064 260.436 241.222C259.433 241.433 259.064 241.222 258.853 240.378Z" fill="white"/>
<path d="M276.476 239.797C276.476 238.847 276.845 238.425 277.847 238.162C279.325 237.792 280.169 238.531 280.169 240.219C280.169 240.905 279.747 241.116 278.322 241.116C276.687 241.116 276.476 240.958 276.476 239.797Z" fill="white"/>
<path d="M257.27 239.797C257.112 239.375 257.217 239.006 257.481 239.006C257.798 239.006 258.009 239.375 258.009 239.797C258.009 240.219 257.903 240.589 257.798 240.589C257.692 240.589 257.481 240.219 257.27 239.797Z" fill="white"/>
<path d="M262.599 240.219C261.86 239.533 262.282 238.056 263.232 237.792C263.812 237.634 264.393 237.687 264.551 237.845C265.184 238.425 264.815 239.956 264.023 240.272C263.021 240.641 263.021 240.641 262.599 240.219Z" fill="white"/>
<path d="M281.435 239.85C280.855 238.32 281.488 237.159 282.966 237.001C284.074 236.842 284.39 237.054 284.39 237.898C284.39 239.639 283.81 240.589 282.755 240.589C282.174 240.589 281.594 240.272 281.435 239.85Z" fill="white"/>
<path d="M266.292 239.164C265.659 238.584 265.87 237.528 266.767 237.212C267.77 236.842 269.88 237.898 269.3 238.478C268.561 239.111 266.662 239.586 266.292 239.164Z" fill="white"/>
<path d="M270.883 237.845C270.408 237.106 272.096 235.84 273.468 235.84C274.101 235.84 274.365 236.157 274.26 236.737C274.049 237.792 271.358 238.636 270.883 237.845Z" fill="white"/>
<path d="M256.426 237.476C256.426 237.212 256.267 236.631 256.109 236.157C255.951 235.682 256.004 235.312 256.32 235.312C257.006 235.312 257.534 237.317 256.901 237.739C256.637 237.898 256.426 237.792 256.426 237.476Z" fill="white"/>
<path d="M257.85 236.262C257.534 235.101 258.167 234.257 259.38 234.257C260.066 234.257 260.752 236.315 260.33 237.001C259.75 237.898 258.114 237.37 257.85 236.262Z" fill="white"/>
<path d="M261.544 236.526C260.752 235.734 261.227 233.835 262.282 233.571C263.074 233.36 263.496 233.624 263.918 234.574C264.234 235.26 264.393 235.945 264.287 236.051C263.76 236.526 261.86 236.895 261.544 236.526Z" fill="white"/>
<path d="M275.79 236.526C275.104 235.84 275.42 235.418 277.003 234.837C278.322 234.415 278.692 234.468 278.956 235.101C279.43 236.368 276.792 237.581 275.79 236.526Z" fill="white"/>
<path d="M280.433 235.312C279.905 234.468 280.644 233.729 282.016 233.729C283.651 233.729 284.126 235.101 282.649 235.523C281.066 235.945 280.802 235.893 280.433 235.312Z" fill="white"/>
<path d="M284.918 234.046C284.918 233.255 285.867 232.41 286.29 232.832C286.659 233.202 285.92 234.785 285.393 234.785C285.129 234.785 284.918 234.468 284.918 234.046Z" fill="white"/>
<path d="M255.74 233.36C255.529 233.202 255.37 232.516 255.423 231.935C255.423 230.933 255.476 230.933 255.951 232.094C256.478 233.36 256.373 233.993 255.74 233.36Z" fill="white"/>
<path d="M256.742 232.569C256.267 230.722 256.32 230.564 257.692 230.564C259.222 230.564 260.172 232.516 259.011 233.255C257.798 233.993 257.112 233.782 256.742 232.569Z" fill="white"/>
<path d="M274.893 233.624C274.893 233.466 275.157 232.621 275.473 231.672C276.212 229.561 277.848 229.456 278.217 231.513C278.375 232.305 278.428 232.991 278.375 233.043C278.111 233.36 274.893 233.835 274.893 233.624Z" fill="white"/>
<path d="M260.488 232.305C260.277 232.147 260.119 231.513 260.119 230.933C260.119 230.089 260.277 230.036 260.911 230.564C261.333 230.933 261.702 231.566 261.702 231.936C261.702 232.727 261.069 232.938 260.488 232.305Z" fill="white"/>
<path d="M279.483 231.25C279.167 229.614 279.852 228.875 281.488 229.086C282.28 229.192 282.543 229.667 282.543 230.827C282.543 232.147 282.332 232.463 281.172 232.569C280.011 232.727 279.747 232.463 279.483 231.25Z" fill="white"/>
<path d="M284.654 231.461C283.968 229.35 284.179 228.717 285.604 228.559C286.87 228.4 287.028 228.559 287.028 229.931C287.028 231.091 286.712 231.566 285.92 231.777C285.34 231.936 284.759 231.777 284.654 231.461Z" fill="white"/>
<path d="M254.948 228.453C254.948 227.451 255.054 227.029 255.212 227.556C255.318 228.031 255.318 228.875 255.212 229.403C255.054 229.878 254.948 229.456 254.948 228.453Z" fill="white"/>
<path d="M256.267 229.139C255.581 228.506 255.898 226.448 256.742 226.132C257.956 225.657 258.536 226.237 258.536 227.978C258.536 229.086 258.272 229.508 257.586 229.508C257.059 229.508 256.426 229.35 256.267 229.139Z" fill="white"/>
<path d="M259.433 227.714C259.222 226.923 259.117 226.079 259.328 225.921C259.855 225.393 260.172 226.237 260.014 227.767L259.855 229.245L259.433 227.714Z" fill="white"/>
<path d="M276.476 227.345C276.476 226.765 276.739 226.448 277.003 226.606C277.32 226.765 277.531 227.292 277.531 227.714C277.531 228.137 277.32 228.453 277.003 228.453C276.739 228.453 276.476 227.978 276.476 227.345Z" fill="white"/>
<path d="M278.85 228.031C278.111 227.24 278.692 225.815 279.905 225.498C281.435 225.129 281.488 225.129 281.963 226.659C282.28 227.609 282.068 227.82 280.697 228.031C279.852 228.189 279.008 228.137 278.85 228.031Z" fill="white"/>
<path d="M283.704 227.028C283.124 226.501 283.282 224.76 283.863 224.76C284.179 224.76 284.39 224.549 284.39 224.232C284.39 223.968 284.074 223.704 283.651 223.704C282.755 223.704 282.016 221.119 282.755 220.38C283.704 219.431 284.76 220.433 285.393 223.019C285.762 224.39 286.131 225.973 286.29 226.501C286.501 227.187 286.29 227.398 285.287 227.398C284.601 227.398 283.863 227.24 283.704 227.028Z" fill="white"/>
<path d="M286.553 224.232C286.184 222.649 285.234 219.483 284.548 217.162C283.493 213.785 283.387 212.941 283.968 212.571C284.337 212.308 284.812 212.097 284.97 212.097C285.551 212.097 287.661 222.913 287.45 225.024L287.292 227.134L286.553 224.232Z" fill="white"/>
<path d="M254.421 223.968C254.421 223.124 254.526 222.807 254.684 223.335C254.79 223.81 254.79 224.549 254.684 224.918C254.526 225.235 254.421 224.865 254.421 223.968Z" fill="white"/>
<path d="M255.476 223.863C255.687 222.016 257.217 221.594 257.639 223.282C258.008 224.654 258.114 224.496 256.531 225.024C255.423 225.34 255.318 225.235 255.476 223.863Z" fill="white"/>
<path d="M277.742 223.388C277.32 221.858 278.217 220.961 279.905 221.172C281.172 221.33 281.646 223.599 280.591 224.285C279.272 225.129 278.059 224.76 277.742 223.388Z" fill="white"/>
<path d="M258.536 222.966C258.536 222.069 258.8 221.594 259.38 221.594C259.908 221.594 260.119 221.963 260.013 222.755C259.75 224.443 258.536 224.601 258.536 222.966Z" fill="white"/>
<path d="M253.84 220.75C253.84 220.169 253.998 220.011 254.157 220.433C254.315 220.803 254.262 221.277 254.104 221.436C253.946 221.647 253.787 221.33 253.84 220.75Z" fill="white"/>
<path d="M254.843 220.591C254.843 219.8 255.159 219.483 255.951 219.483C256.689 219.483 256.953 219.747 256.848 220.38C256.584 221.752 254.843 221.91 254.843 220.591Z" fill="white"/>
<path d="M257.745 220.117C257.376 219.167 257.376 219.167 258.958 218.745C259.908 218.428 260.119 218.586 260.119 219.378C260.119 220.644 258.22 221.277 257.745 220.117Z" fill="white"/>
<path d="M276.845 219.378C276.476 218.059 277.162 217.373 279.008 217.373C279.905 217.373 280.169 217.689 280.169 218.692C280.169 219.483 279.852 220.011 279.43 220.011C279.008 220.011 278.322 220.169 277.9 220.328C277.425 220.486 277.056 220.169 276.845 219.378Z" fill="white"/>
<path d="M281.435 218.164C281.013 217.109 281.646 216.318 282.86 216.318C283.599 216.318 283.863 216.687 283.863 217.637C283.863 218.586 283.599 218.956 282.807 218.956C282.227 218.956 281.594 218.586 281.435 218.164Z" fill="white"/>
<path d="M254.315 217.426C254.315 216.318 255.529 215.051 256.056 215.632C256.267 215.79 256.426 216.529 256.426 217.215C256.426 218.059 256.109 218.428 255.37 218.428C254.685 218.428 254.315 218.059 254.315 217.426Z" fill="white"/>
<path d="M257.217 216.792C256.795 215.473 257.27 214.893 259.064 214.629C260.699 214.418 261.227 216.159 259.803 217.215C258.431 218.217 257.586 218.059 257.217 216.792Z" fill="white"/>
<path d="M276.317 216.476C275.948 216.159 275.79 214.207 276.106 214.207C276.159 214.207 276.95 213.996 277.9 213.732C279.483 213.257 279.589 213.31 279.536 214.735C279.483 215.79 279.167 216.318 278.375 216.529C276.95 216.898 276.739 216.898 276.317 216.476Z" fill="white"/>
<path d="M274.365 215.262C274.365 214.893 274.524 214.735 274.735 214.893C274.893 215.104 274.893 215.421 274.735 215.632C274.524 215.79 274.365 215.632 274.365 215.262Z" fill="white"/>
<path d="M280.275 214.418C280.433 213.521 282.069 212.202 282.438 212.624C282.596 212.782 282.86 213.416 283.018 214.102C283.388 215.157 283.229 215.262 281.752 215.262C280.486 215.262 280.116 215.051 280.275 214.418Z" fill="white"/>
<path d="M254.843 214.365C254.843 214.102 255.107 213.574 255.37 213.152C255.793 212.519 255.898 212.571 255.898 213.574C255.898 214.207 255.687 214.735 255.37 214.735C255.107 214.735 254.843 214.576 254.843 214.365Z" fill="white"/>
<path d="M256.426 213.205C256.426 211.727 257.534 211.252 258.378 212.36C258.906 213.152 258.906 213.416 258.378 213.785C257.27 214.471 256.426 214.26 256.426 213.205Z" fill="white"/>
<path d="M272.466 212.519C271.516 211.463 271.516 211.411 272.413 211.727C272.94 211.938 273.626 212.097 273.89 212.097C274.154 212.097 274.365 212.466 274.365 212.888C274.365 213.996 273.626 213.891 272.466 212.519Z" fill="white"/>
<path d="M261.122 212.466C258.853 210.725 258.536 206.82 260.647 206.82C262.071 206.82 263.39 209.036 263.179 211.094C263.021 212.994 262.388 213.416 261.122 212.466Z" fill="white"/>
<path d="M275.579 212.782C275.79 212.624 276.106 212.624 276.317 212.782C276.476 212.994 276.317 213.152 275.948 213.152C275.579 213.152 275.42 212.994 275.579 212.782Z" fill="white"/>
<path d="M283.546 210.725C283.704 210.25 283.862 209.775 283.862 209.669C283.862 209.564 284.126 209.458 284.39 209.458C284.707 209.458 284.918 209.933 284.918 210.514C284.918 211.147 284.548 211.569 284.073 211.569C283.493 211.569 283.335 211.305 283.546 210.725Z" fill="white"/>
<path d="M255.898 210.566C255.898 209.353 257.006 207.348 257.639 207.348C258.747 207.348 257.956 210.725 256.795 210.936C256.32 211.041 255.898 210.883 255.898 210.566Z" fill="white"/>
<path d="M267.77 209.986L266.187 209.617L267.611 209.247C269.089 208.825 270.144 209.142 270.144 210.039C270.144 210.566 270.091 210.566 267.77 209.986Z" fill="white"/>
<path d="M265.923 207.453C265.923 205.29 267.137 204.974 268.245 206.873C268.983 208.139 269.036 208.403 268.35 208.403C267.928 208.403 267.242 208.561 266.767 208.72C266.134 208.984 265.923 208.667 265.923 207.453Z" fill="white"/>
<path d="M275.104 208.192C272.729 207.137 271.199 204.34 271.199 201.016C271.199 198.642 271.41 198.062 272.835 196.743C273.732 195.898 274.629 195.212 274.893 195.212C276.053 195.212 280.327 199.275 281.752 201.808L283.387 204.71L281.646 206.556C279.641 208.667 277.425 209.247 275.104 208.192Z" fill="white"/>
<path d="M264.076 206.82C263.918 206.556 264.024 206.293 264.287 206.293C264.604 206.293 264.868 206.556 264.868 206.82C264.868 207.137 264.762 207.348 264.657 207.348C264.498 207.348 264.235 207.137 264.076 206.82Z" fill="white"/>
<path d="M257.164 205.976C257.323 205.501 257.481 205.026 257.481 204.921C257.481 204.815 257.956 204.71 258.536 204.71C259.855 204.71 259.908 205.554 258.589 206.293C257.164 207.031 256.795 206.979 257.164 205.976Z" fill="white"/>
<path d="M261.333 205.343C260.119 205.185 259.75 204.499 260.541 204.024C260.752 203.866 261.702 203.602 262.652 203.391C264.076 203.074 264.34 203.18 264.34 204.077C264.34 205.185 263.232 205.659 261.333 205.343Z" fill="white"/>
<path d="M265.396 203.549C265.396 202.916 265.448 202.546 265.554 202.652C265.607 202.758 266.029 203.285 266.398 203.813C267.031 204.551 266.978 204.71 266.24 204.71C265.712 204.71 265.396 204.288 265.396 203.549Z" fill="white"/>
<path d="M258.009 203.18C258.009 202.863 258.272 202.494 258.536 202.335C258.853 202.177 259.064 202.388 259.064 202.81C259.064 203.285 258.853 203.654 258.536 203.654C258.272 203.654 258.009 203.443 258.009 203.18Z" fill="white"/>
<path d="M259.961 202.388C259.539 201.333 263.285 200.172 263.918 201.175C264.393 202.019 263.918 202.388 261.913 202.81C260.699 203.074 260.172 202.969 259.961 202.388Z" fill="white"/>
<path d="M264.921 200.7C264.921 200.119 265.079 199.961 265.237 200.383C265.395 200.753 265.343 201.227 265.184 201.386C265.026 201.597 264.868 201.28 264.921 200.7Z" fill="white"/>
<path d="M260.436 199.856C261.069 198.695 262.916 196.795 263.39 196.795C263.918 196.795 263.971 199.275 263.443 199.592C263.179 199.697 262.335 199.961 261.544 200.172C260.383 200.436 260.119 200.383 260.436 199.856Z" fill="white"/>
<path d="M264.657 198.642C264.076 197.059 264.34 196.373 265.606 196.162C266.925 195.898 266.925 195.898 266.081 197.534C265.026 199.644 265.079 199.644 264.657 198.642Z" fill="white"/>
<path d="M264.34 195.476C264.34 195.371 265.395 194.632 266.714 193.893C268.297 192.944 269.405 192.627 270.197 192.838C271.147 193.155 270.883 193.366 268.561 194.474C265.976 195.635 264.34 196.057 264.34 195.476Z" fill="white"/>
<path d="M293.624 148.728C292.199 146.67 289.192 143.346 287.028 141.341C284.865 139.336 283.44 137.701 283.862 137.701C285.023 137.701 293.887 140.128 296.103 141.078C297.95 141.869 298.003 141.974 297.528 143.61C297.264 144.56 297.053 146.934 297.053 148.886C297.053 150.891 296.895 152.474 296.684 152.474C296.42 152.474 295.101 150.786 293.624 148.728Z" fill="white"/>
<path d="M186.251 308.547C184.088 307.439 183.613 306.806 180.869 301.372C176.912 293.668 176.806 291.874 180.552 296.254C182.03 297.995 185.459 301.583 188.15 304.221C192.741 308.653 192.952 308.97 191.422 308.759C190.314 308.6 189.892 308.706 190.155 309.128C190.789 310.078 188.784 309.814 186.251 308.547Z" fill="white"/>
<path fill-rule="evenodd" clip-rule="evenodd" d="M274.676 404.677C274.238 403.637 274.726 402.439 275.766 402.001L276.903 401.519C287.955 396.79 294.299 393.949 298.609 389.438C302.92 384.928 303.436 378.302 304.245 374.27C304.468 373.164 306.973 375.107 308.079 375.329C309.186 375.552 309.902 376.629 309.68 377.735C308.707 382.582 306.084 387.203 301.863 391.59C297.656 395.962 289.511 400.648 277.352 405.768C276.312 406.205 275.113 405.717 274.676 404.677Z" fill="#00160A"/>
<path fill-rule="evenodd" clip-rule="evenodd" d="M324.656 194.152C325.625 193.575 326.879 193.893 327.457 194.863C333.236 204.572 336.333 215.671 336.333 227.219C336.333 262.202 307.973 290.562 272.989 290.562C263.693 290.562 254.677 288.557 246.421 284.737C245.397 284.263 241.528 280.49 245.424 282.025C249.321 283.559 264.398 287.004 273.098 287.004C305.824 287.004 328.977 259.945 328.977 227.219C328.977 216.412 324.656 206.82 323.945 196.953C323.863 195.81 323.686 194.73 324.656 194.152Z" fill="#00160A"/>
<path fill-rule="evenodd" clip-rule="evenodd" d="M122.289 348.801C123.011 347.934 124.299 346.182 125.166 346.905C128.723 349.867 132.519 353.3 136.58 353.963C140.805 354.652 145.818 354.652 151.611 353.951C152.732 353.815 153.75 354.614 153.885 355.734C154.021 356.854 153.223 357.872 152.102 358.008C145.95 358.753 140.559 358.753 135.922 357.996C131.12 357.213 126.654 355.097 122.551 351.679C121.684 350.957 121.566 349.669 122.289 348.801Z" fill="#00160A"/>
<path d="M165.673 277.312C163.035 275.201 157.389 268.975 153.115 263.488C150.899 260.586 148.42 254.676 146.942 248.714C146.256 246.023 145.57 243.596 145.412 243.28C145.201 243.016 144.357 239.27 143.513 234.943C142.246 228.822 142.514 226.851 141.402 219.53C140.931 216.43 140.505 213.963 140.505 213.963L141.877 212.202C142.668 211.147 143.67 209.401 144.04 208.403C145.729 203.86 158.128 189.62 158.497 189.989C158.603 190.094 158.181 192.574 157.442 195.476C156.756 198.378 155.912 202.758 155.543 205.237C155.015 209.353 154.804 209.828 153.168 211.2C151.111 212.941 147.206 218.534 147.206 219.694C147.206 221.277 149.58 220.222 152.06 217.637L154.593 214.999V217.901C154.593 219.8 154.224 221.541 153.538 222.913C152.219 225.498 152.219 228.242 153.485 230.353C154.118 231.408 154.698 233.94 155.068 236.948C156.703 250.561 160.186 262.38 166.148 274.251C167.625 277.206 168.786 279.633 168.733 279.633C168.628 279.633 167.256 278.578 165.673 277.312Z" fill="white"/>
<path fill-rule="evenodd" clip-rule="evenodd" d="M385.22 309.867L389.019 311.555C389.807 311.919 398.497 316.094 408.935 321.11C425.765 329.196 447.139 339.467 447.27 339.467C447.481 339.467 448.471 337.177 448.694 334.507C449.222 328.756 451.174 320.947 453.443 315.512C454.498 313.085 455.342 310.052 455.342 309.788C455.342 309.667 454.485 309.321 453.08 308.755C451.409 308.081 448.962 307.094 446.267 305.804C432.971 299.419 406.959 286.387 403.74 284.435C400.574 282.588 399.941 282.43 399.941 283.643C399.941 285.226 396.723 292.56 394.243 296.517C392.924 298.681 390.338 302.585 388.492 305.171L385.22 309.867ZM446.373 329.969C447.886 330.846 445.265 332.133 444.631 332.344C440.903 332.66 436.514 331.959 432.918 329.864C431.038 328.53 416.232 320.305 406.411 314.849C401.921 312.354 398.473 310.439 397.778 310.025C395.562 308.706 393.451 307.281 393.082 306.859C391.974 305.434 393.029 304.801 396.142 305.065C398.014 305.224 443.105 328.075 446.373 329.969Z" fill="white"/>
<path d="M347.336 314.615C345.965 314.14 344.487 313.085 343.537 311.871L341.955 309.919L347.547 304.379C356.148 295.937 362.479 286.711 368.178 276.422C370.077 272.992 375.723 259.161 376.409 257.631C377.464 255.415 378.256 254.571 380.524 253.305C383.215 251.722 386.276 251.194 387.595 252.091C390.127 253.779 390.127 259.108 387.595 268.289C384.798 278.367 381.052 285.595 373.296 295.99C372.082 297.573 369.813 300.686 368.178 302.849C363.798 308.653 360.949 311.449 357.098 313.613C353.299 315.723 351.083 315.987 347.336 314.615Z" fill="white"/>
<path d="M367.228 313.402L366.12 312.294C366.12 312.294 384.51 288.928 387.805 280.319C390.32 273.749 391.8 271.886 393.797 271.886C394.914 271.886 395.825 272.141 396.248 272.774C396.986 273.882 397.698 275.254 396.748 279.95C395.165 287.548 392.738 292.56 385.457 303.377C383.769 305.857 381.605 308.6 380.656 309.55C378.44 311.608 373.454 313.718 370.552 314.193C368.705 314.457 368.178 314.351 367.228 313.402Z" fill="white"/>
<path fill-rule="evenodd" clip-rule="evenodd" d="M398.119 288.969C399.183 286.535 399.941 284.412 399.941 283.643C399.941 282.43 400.574 282.588 403.74 284.435C406.959 286.387 432.971 299.419 446.267 305.804C451.227 308.178 455.342 309.524 455.342 309.788C455.342 310.052 396.991 291.55 398.119 288.969Z" fill="#E7EAEE"/>
<path fill-rule="evenodd" clip-rule="evenodd" d="M217.592 291.98C210.891 287.601 200.76 277.312 195.854 269.978C188.836 259.425 184.193 248.134 181.924 235.998C180.288 227.187 180.341 213.627 181.977 205.765C183.665 197.745 185.829 191.625 189.68 183.868C194.165 174.899 198.914 168.303 206.037 161.18C213.022 154.195 181.977 183.081 189.68 234.765C195.854 278.076 222.384 295.137 217.592 291.98Z" fill="#E7EAEE"/>
</svg>
